<svg width="312" height="37" viewBox="0 0 312 37" fill="none" xmlns="http://www.w3.org/2000/svg">
<path d="M52 8.2207C52 3.80242 55.5817 0.220703 60 0.220703H80C84.4183 0.220703 88 3.80243 88 8.2207V28.2207C88 32.639 84.4183 36.2207 80 36.2207H60C55.5817 36.2207 52 32.639 52 28.2207V8.2207Z" fill="#EDF5FF"/>
<path d="M156 8.2207C156 3.80242 159.582 0.220703 164 0.220703H184C188.418 0.220703 192 3.80243 192 8.2207V28.2207C192 32.639 188.418 36.2207 184 36.2207H164C159.582 36.2207 156 32.639 156 28.2207V8.2207Z" fill="#EDF5FF"/>
<path d="M0 8.2207C0 3.80242 3.58172 0.220703 8 0.220703H28C32.4183 0.220703 36 3.80243 36 8.2207V28.2207C36 32.639 32.4183 36.2207 28 36.2207H8C3.58172 36.2207 0 32.639 0 28.2207V8.2207Z" fill="#EDF5FF"/>
<path d="M208 8.2207C208 3.80242 211.582 0.220703 216 0.220703H236C240.418 0.220703 244 3.80243 244 8.2207V28.2207C244 32.639 240.418 36.2207 236 36.2207H216C211.582 36.2207 208 32.639 208 28.2207V8.2207Z" fill="#EDF5FF"/>
<path d="M104 8.2207C104 3.80242 107.582 0.220703 112 0.220703H132C136.418 0.220703 140 3.80243 140 8.2207V28.2207C140 32.639 136.418 36.2207 132 36.2207H112C107.582 36.2207 104 32.639 104 28.2207V8.2207Z" fill="#EDF5FF"/>
</svg>
